<?xml version="1.0" encoding="UTF-8"?>
<svg width="70px" height="70px" viewBox="0 0 70 70" version="1.1" xmlns="http://www.w3.org/2000/svg" xmlns:xlink="http://www.w3.org/1999/xlink">
    <title>tintin_color _horizontal 2</title>
    <defs>
        <linearGradient x1="6.00433839%" y1="94.7678959%" x2="93.9927693%" y2="5.23210412%" id="linearGradient-1">
            <stop stop-color="#5F23F0" offset="17%"></stop>
            <stop stop-color="#AE348F" offset="59%"></stop>
            <stop stop-color="#E64145" offset="86%"></stop>
        </linearGradient>
    </defs>
    <g id="页面-1" stroke="none" stroke-width="1" fill="none" fill-rule="evenodd">
        <g id="tintin_color-_horizontal-2" fill-rule="nonzero">
            <g id="tintin_color-_horizontal">
                <rect id="矩形" fill="url(#linearGradient-1)" x="0" y="0" width="70" height="70" rx="13.4229935"></rect>
                <path d="M62.6163413,29.6783803 C62.5568943,29.0477112 62.2489893,28.4666012 61.7605474,28.0632378 C61.2721055,27.6598745 60.6432591,27.4673998 60.012726,27.5282719 C59.6078091,27.5768619 49.8898048,28.540564 44.5449024,17.7535792 C44.2744779,17.1831996 43.7829665,16.7479053 43.1840827,16.5484047 C42.5851989,16.3489042 41.9308336,16.4024833 41.3723789,16.6967462 C40.207873,17.3439552 39.7612572,18.7945632 40.3600868,19.984671 C42.1396963,23.5702097 44.3120752,26.1333333 46.567462,27.9635575 C46.48884,28.0777908 46.4210595,28.1991179 46.3650036,28.3259581 C46.3224873,28.4211135 42.1133767,37.8151844 30.3485177,37.0154736 C26.9350687,36.6449747 21.377585,34.8896602 17.5551699,27.8582791 C17.2625769,27.2996226 16.7546568,26.8845794 16.1489046,26.7091597 C15.5431525,26.5337399 14.8920463,26.6131409 14.3462039,26.9289949 C13.2051619,27.6179636 12.808947,29.0832448 13.4472885,30.2533623 C15.358496,33.7680405 17.6240058,36.2420824 19.9441793,37.9832249 L14.4170644,48.4017354 C13.7876019,49.5773776 14.1986811,51.0402832 15.3483731,51.7159798 C15.6930178,51.9131216 16.0830709,52.0170893 16.4801157,52.0176428 C17.350378,52.0114347 18.1458571,51.5244862 18.5472162,50.7522777 L24.0581345,40.3621114 C25.8847389,41.1402321 27.8159998,41.6450478 29.7897325,41.8603037 C29.8566586,41.8729484 29.9242562,41.881736 29.9921909,41.8866233 L30.0873463,41.8866233 C30.7817787,41.9534346 31.4114244,41.9777296 31.954013,41.9777296 C32.6684941,41.9850286 33.3825054,41.9383302 34.0899494,41.8380333 L34.1101952,41.8380333 C36.062755,41.6574201 37.9800501,41.2021222 39.8053507,40.485611 L45.1968185,50.9790311 C45.592046,51.767383 46.3962331,52.267262 47.2780911,52.2727408 C47.6648252,52.2727408 48.0452507,52.1747339 48.3835141,51.987274 C49.5412395,51.3249275 49.9707829,49.8675165 49.3573391,48.6831526 L43.9800434,38.2201012 C46.7813688,36.2275711 49.0511218,33.5782515 50.5903109,30.5044107 C53.2650407,31.7685192 56.1838031,32.4325653 59.1421547,32.4500362 C59.6155294,32.4537858 60.0887241,32.4301261 60.5593637,32.3791757 C61.8646266,32.1867863 62.7777729,30.9878324 62.6163413,29.6783803 L62.6163413,29.6783803 Z" id="路径" fill="#FFFFFF"></path>
            </g>
        </g>
    </g>
</svg>